<svg xmlns="http://www.w3.org/2000/svg" width="96" height="96"><g id="Falcon" fill="none" stroke="#1ca8c3" stroke-width="4" stroke-linecap="round" stroke-miterlimit="10"><path stroke-linejoin="round" d="M33.163 45.839L15.75 28.427m25.127 10.984l-17.89-17.89"/><circle transform="rotate(-45.001 22.558 73.42)" stroke-linejoin="round" cx="22.559" cy="73.419" r="1"/><circle transform="rotate(-45.001 29.63 66.349)" stroke-linejoin="round" cx="29.63" cy="66.348" r="1"/><circle stroke-linejoin="round" cx="15.584" cy="61.752" r="1"/><circle stroke-linejoin="round" cx="24.584" cy="57.509" r="1"/><circle stroke-linejoin="round" cx="34.226" cy="80.394" r="1"/><circle stroke-linejoin="round" cx="38.469" cy="71.394" r="1"/><path stroke-linejoin="round" d="M49.819 40.502L84.077 6.244l-4.243-4.243-47.148 14.494m41.492-.352l5.656 5.657m-6.515 6.515c5.669 7.034 8.288 15.854 8.05 24.413"/><path stroke-linejoin="round" d="M55.116 46.472l34.618-34.571 4.243 4.242-11.061 35.104"/><path stroke-linejoin="round" d="M58.994 57.528l25.79 5.991 7.778-7.778c1.945-1.945 1.945-5.127 0-7.071h0c-1.944-1.944-5.126-1.944-7.071 0l-4.152 4.088-26.222-6.286m19.425 26.604L55.566 54.205m12.096 26.134L49.284 61.777"/><circle transform="rotate(-45.001 44 51)" cx="44" cy="51" r="12"/><path stroke-linejoin="round" d="M7.954 46l25.209-.161m16.798 42.254l-.711-26.316m30.793.641a36.836 36.836 0 01-9.197 15.244 36.84 36.84 0 01-20.681 10.431l-5.961 5.906h0c-10 0-21.514-4.149-29.813-12.448-8.28-8.28-12.43-19.128-12.448-29.98h0L7.954 46c1.155-7.507 4.784-14.882 10.566-20.664 13.459-13.459 34.708-14.382 49.235-2.767"/></g></svg>