<svg width="1000" height="600" xmlns="http://www.w3.org/2000/svg"><path fill="#d40000" d="M0 0h1000v600H0z"/><g transform="translate(-56.25 -70.833) scale(1.2361)"><circle cx="450" cy="300" r="180" fill="#fff"/><path d="M450 120c-99.36 0-180 80.64-180 180s80.64 180 180 180 180-80.64 180-180-80.64-180-180-180zm-8.495 14.923c.101-.005.205.005.306 0l.766 12.207c-10.382.495-20.487 2.009-30.23 4.477l3.023 11.901c-25.573 6.478-48.351 19.945-66.2 38.265l-8.762-8.571a153.661 153.661 0 00-19.056 23.954l-10.255-6.773c28.009-43.306 75.717-72.684 130.41-75.46zm16.684 0c54.818 2.682 102.65 32.073 130.71 75.459l-10.255 6.773c-5.545-8.59-11.91-16.62-19.018-23.916l-8.763 8.533c-17.85-18.33-40.655-31.786-66.237-38.265l3.023-11.9c-9.742-2.469-19.848-3.983-30.23-4.478zM450 188.877c5.204-.012 10.408.306 14.694.918l-6.696 55.714c14.076 2.053 26.417 9.42 34.936 20.013l44.694-33.52c5.429 6.763 11.583 17.373 14.809 25.408l-51.352 21.964A54.81 54.81 0 01505.103 300c0 7.032-1.307 13.751-3.712 19.936l50.931 21.773c-3.143 8.083-9.233 18.674-14.579 25.485l-44.388-33.214c-8.508 10.835-20.991 18.402-35.242 20.51l6.582 54.796c-8.572 1.32-20.816 1.301-29.388.077l6.581-54.872c-14.262-2.11-26.734-9.7-35.242-20.548l-44.273 33.214c-5.429-6.763-11.583-17.373-14.809-25.408l51.046-21.85a54.863 54.863 0 01-3.711-19.897 54.827 54.827 0 014.017-20.663L347.68 257.45c3.143-8.083 9.233-18.674 14.58-25.485l44.808 33.559c8.52-10.593 20.861-17.96 34.936-20.013l-6.696-55.638c4.286-.66 9.49-.983 14.694-.995zM302.91 224.54l11.02 5.434c-4.648 9.01-8.448 18.525-11.25 28.469l11.786 3.329a140.737 140.737 0 00-5.28 38.227c0 13.263 1.848 26.096 5.28 38.265l-11.786 3.329c2.8 9.928 6.608 19.434 11.25 28.43l-11.02 5.435c-11.639-22.627-18.214-48.28-18.214-75.46 0-27.18 6.576-52.831 18.214-75.458zm294.18 0c11.64 22.627 18.214 48.279 18.214 75.459s-6.575 52.832-18.214 75.459l-11.02-5.434c4.645-9 8.45-18.499 11.25-28.43l-11.786-3.33a140.753 140.753 0 005.28-38.265 140.71 140.71 0 00-5.28-38.227l11.786-3.329c-2.8-9.942-6.604-19.46-11.25-28.469zm-275.74 158.3c5.56 8.61 11.93 16.642 19.056 23.954l8.763-8.571c17.848 18.32 40.626 31.788 66.2 38.265l-3.024 11.9c9.743 2.468 19.848 3.982 30.23 4.477l-.765 12.207c-54.818-2.682-102.65-32.073-130.71-75.46zm257.33 0l10.217 6.773c-28.06 43.387-75.896 72.778-130.71 75.459l-.765-12.207c10.382-.495 20.487-2.009 30.23-4.477l-3.023-11.9c25.582-6.48 48.387-19.935 66.237-38.265l8.763 8.533a153.892 153.892 0 0019.056-23.916z"/></g></svg>