<svg baseProfile="full" xmlns="http://www.w3.org/2000/svg"><symbol id="Storm-Trooper" viewBox="0 0 96 96"><path fill="none" stroke="#000" stroke-width="4" stroke-linecap="round" stroke-linejoin="round" stroke-miterlimit="10" d="M56 83.286a8 8 0 01-16 0c0-4.418 3.582-12.571 8-12.571 4.418-.001 8 8.152 8 12.571z"/><circle transform="rotate(-45.001 69 78.001)" fill="none" stroke="#000" stroke-width="4" stroke-linecap="round" stroke-linejoin="round" stroke-miterlimit="10" cx="69" cy="78" r="5"/><circle transform="rotate(-45.001 27 78)" fill="none" stroke="#000" stroke-width="4" stroke-linecap="round" stroke-linejoin="round" stroke-miterlimit="10" cx="27" cy="78" r="5"/><path fill="none" stroke="#000" stroke-width="4" stroke-linecap="round" stroke-linejoin="round" stroke-miterlimit="10" d="M40.948 87.066c-.553 1.066-1.568 2.524-2.463 3.419-4.686 4.686-12.284 4.686-16.971 0l-5-5a11.98 11.98 0 01-3.437-9.856C13.078 75.629 6 65.875 6 62a8 8 0 018-8h-4l2-16h2V26h0C14 12.8 24.8 2 38 2h20c13.2 0 24 10.8 24 24h0v12h2l2 16h-4a8 8 0 018 8c0 3.875-7.078 13.629-7.078 13.629a11.977 11.977 0 01-3.437 9.856l-5 5c-4.686 4.686-12.284 4.686-16.971 0-.895-.895-1.91-2.353-2.463-3.419"/><path fill="none" stroke="#000" stroke-width="4" stroke-linecap="round" stroke-linejoin="round" stroke-miterlimit="10" d="M74 45a5 5 0 01-5 5c-5.563 0-15-5.125-15-12h20v7zm-52 0a5 5 0 005 5c5.562 0 15-5.125 15-12H22v7zm46 20c-2.958 0-6.375-2.5-11.75-5.5C53.846 58.158 51.258 57 48 57s-5.846 1.158-8.25 2.5C34.375 62.5 30.958 65 28 65"/><path fill="none" stroke="#000" stroke-width="4" stroke-linecap="round" stroke-miterlimit="10" d="M14 30h68m-67.92-6h67.837"/></symbol><symbol id="Storm-Trooper-2" viewBox="0 0 96 96"><path fill="none" stroke="#000" stroke-width="4" stroke-linecap="round" stroke-linejoin="round" stroke-miterlimit="10" d="M20.563 49.503c-4.313 4.08-1.765 8.001-1.765 8.001l10.709 18.149a2.018 2.018 0 002.462.854c2.003-.772 3.79-2.812 8.015-5.158C42.393 70.01 44.733 69 48 69h0c3.267 0 5.877 1.01 8.288 2.348 4.225 2.346 6.011 4.386 8.015 5.158a2.019 2.019 0 002.462-.854l10.709-18.149s2.599-3.396-2.018-7.99m-4.964 33.895a1.989 1.989 0 010 2.822 2.013 2.013 0 01-2.836 0 1.989 1.989 0 010-2.822 2.011 2.011 0 012.836 0zm-55.823-21.04l5.892 9.897m61.174-9.897l-5.892 9.897"/><path fill="none" stroke="#000" stroke-width="4" stroke-linecap="round" stroke-miterlimit="10" d="M58.031 90.307C55.285 92.493 51.789 94 48 94c-3.827 0-7.327-1.534-10.085-3.759"/><path fill="none" stroke="#000" stroke-width="4" stroke-linecap="round" stroke-miterlimit="10" d="M83.114 31.934C83.114 15.47 69.575 2 53.028 2H43C26.453 2 12.914 15.47 12.914 31.934V42.91C.985 56.755 8.112 67.985 8.112 67.985s7.02 13.943 11.658 21.801c4.638 7.858 14.337 2.43 18.211.412C42.703 87.739 48 88 48 88h0s5.23-.253 9.952 2.206c3.874 2.018 13.521 7.573 18.159-.285S87.75 68.085 87.75 68.085s7.398-11.33-4.636-25.174V31.934M13 40h70m-70-6h70"/><path fill="none" stroke="#000" stroke-width="4" stroke-linecap="round" stroke-linejoin="round" stroke-miterlimit="10" d="M14.877 39.917C17.127 43.992 20.026 53 28 53c8.587 0 14.06-7.096 20.014-7.096S59.413 53 68 53c7.973 0 10.901-9.008 13.151-13.083"/></symbol><symbol id="Storm-Trooper-3" viewBox="0 0 96 96"><circle transform="rotate(-45.001 28 85)" fill="none" stroke="#000" stroke-width="4" stroke-linecap="round" stroke-linejoin="round" stroke-miterlimit="10" cx="28" cy="85" r="3"/><circle transform="rotate(-45.001 68 85.001)" fill="none" stroke="#000" stroke-width="4" stroke-linecap="round" stroke-linejoin="round" stroke-miterlimit="10" cx="68" cy="85" r="3"/><path fill="none" stroke="#000" stroke-width="4" stroke-linecap="round" stroke-linejoin="round" stroke-miterlimit="10" d="M2.819 74L23 38h50l20.205 36M19.62 44h56.64"/><path fill="none" stroke="#000" stroke-width="4" stroke-linecap="round" stroke-linejoin="round" stroke-miterlimit="10" d="M87.701 64.194c-1.05 2.743-11.175 23.694-11.175 23.694a9.003 9.003 0 01-16.258 1.721v-.004C55.875 88.75 51.284 88 48 88c-3.266 0-8.275.397-12.266 1.605a9.004 9.004 0 01-16.307-1.857S9.437 66.81 8.387 64.067"/><path fill="none" stroke="#000" stroke-width="4" stroke-linecap="round" stroke-miterlimit="10" d="M76.618 87.874c5.946-.964 11.365-2.325 14.998-4.217 3.343-1.74 2.781-6.532 1-11.314L82.959 45 83 32C83 15.5 69.5 2 53 2H43C26.5 2 13 15.5 13 32l.041 13-9.657 27.343c-1.781 4.782-2.343 9.574 1 11.314 3.663 1.907 9.089 3.275 15.092 4.241"/><path fill="none" stroke="#000" stroke-width="4" stroke-linecap="round" stroke-linejoin="round" stroke-miterlimit="10" d="M11.917 57.941l10.631 19.898A8.955 8.955 0 0128 76a8.997 8.997 0 017.922 4.726l-.002-.001c.377-.1 12.08-1.725 24.08.15h-.001A8.998 8.998 0 0168 76a8.96 8.96 0 015.641 1.987l-.004-.002 10.555-20.044"/></symbol><symbol id="Storm-Trooper-4" viewBox="0 0 96 96"><path fill="none" stroke="#000" stroke-width="4" stroke-linecap="round" stroke-linejoin="round" stroke-miterlimit="10" d="M56 94h4.844c.713 0 1.37-.376 1.728-.993C65.521 87.92 77.055 65 81.5 65l1.827.003c2.762.004 4.697-2.727 3.777-5.332l-3.145-14.568.041-13c0-16.5-13.5-30-30-30H44c-16.5 0-30 13.5-30 30l.041 13-3.144 14.566c-.92 2.604 1.013 5.334 3.774 5.332L16.5 65c4.445 0 15.979 22.92 18.928 28.007a1.993 1.993 0 001.728.993H42c0-2.2 1.8-4 4-4h6c2.2 0 4 1.8 4 4h0z"/><path fill="none" stroke="#000" stroke-width="4" stroke-linecap="round" stroke-miterlimit="10" d="M56 49s7.551 19.411 20.142 20.905"/><path fill="none" stroke="#000" stroke-width="4" stroke-linecap="round" stroke-linejoin="round" stroke-miterlimit="10" d="M67.75 83.578L76.954 81H77l-.858-11.095M30.351 83.761L21.01 81H21l.858-11.095"/><path fill="none" stroke="#000" stroke-width="4" stroke-linecap="round" stroke-miterlimit="10" d="M65 51s-11-3-16-3-16 3-16 3c-2.75 0-5-2.25-5-5h0c0-2.75 2.25-5 5-5 0 0 11 2 16 2s16-2 16-2c2.75 0 5 2.25 5 5h0c0 2.75-2.25 5-5 5z"/><path fill="none" stroke="#000" stroke-width="4" stroke-linecap="round" stroke-miterlimit="10" d="M21.858 69.905c2.338-2.621 5.242-7.125 1.643-9.812C18.979 57.035 16 51.859 16 46c0-9.374 7.626-17 17-17l2.145.193C39.275 29.943 46.305 31 49 31c2.695 0 9.725-1.057 13.855-1.807L65 29c9.374 0 17 7.626 17 17 0 5.859-2.979 11.035-7.502 14.093-3.553 2.653-.767 7.078 1.555 9.712"/><path fill="none" stroke="#000" stroke-width="4" stroke-linecap="round" stroke-miterlimit="10" d="M27.756 55.668C24.33 53.802 22 50.168 22 46c0-6.065 4.935-11 11-11l1.073.097C36.987 35.626 45.349 37 49 37s12.013-1.374 14.927-1.903L65 35c6.065 0 11 4.935 11 11 0 4.168-2.33 7.802-5.756 9.668M41.5 49s-7.214 19.194-19.642 20.905"/></symbol><symbol id="Storm-Trooper-5" viewBox="0 0 96 96"><path fill="none" stroke="#000" stroke-width="4" stroke-linecap="round" stroke-linejoin="round" stroke-miterlimit="10" d="M15.824 26H7v45h4.45M11 26V2"/><path fill="none" stroke="#000" stroke-width="4" stroke-linecap="round" stroke-miterlimit="10" d="M14.041 37c0-19.33 15.67-35 35-35h-.082c19.33 0 35 15.67 35 35"/><path fill="none" stroke="#000" stroke-width="4" stroke-linecap="round" stroke-linejoin="round" stroke-miterlimit="10" d="M14 37l-3 40 29 17h18l29.375-17L84 37"/><path fill="none" stroke="#000" stroke-width="4" stroke-linecap="round" stroke-miterlimit="10" d="M14.275 33h69.443"/><path fill="none" stroke="#000" stroke-width="4" stroke-linecap="round" stroke-linejoin="round" stroke-miterlimit="10" d="M58 94V52s12.29-4.046 20.234-7.116L77.532 39H20l-.468 5.884C27.476 47.954 40 52 40 52v42"/><path fill="none" stroke="#000" stroke-width="4" stroke-linecap="round" stroke-miterlimit="10" d="M12.997 50.392C25.478 56.896 34 69.953 34 85v5.483M85.003 51.1C72.522 57.604 64 69.953 64 85v5.528"/><path fill="none" stroke="#000" stroke-width="4" stroke-linecap="round" stroke-linejoin="round" stroke-miterlimit="10" d="M59.333 15.333l5.25 6.25M55 19v5"/></symbol><symbol id="Storm-Trooper-6" viewBox="0 0 96 96"><path fill="none" stroke="#000" stroke-width="4" stroke-linecap="round" stroke-linejoin="round" stroke-miterlimit="10" d="M53 63c2.02 1.318 7.757 2.091 13 2.042M43 63c-2.02 1.318-7.757 2.091-13 2.042M44 20V2h8v33h-8v-5m-1 32.75c0-2.761 2.239-4.75 5-4.75s5 1.989 5 4.75V68H43v-5.25z"/><circle transform="rotate(-45.001 31 85)" fill="none" stroke="#000" stroke-width="4" stroke-linecap="round" stroke-linejoin="round" stroke-miterlimit="10" cx="31" cy="85" r="3"/><circle transform="rotate(-45.001 65 85.001)" fill="none" stroke="#000" stroke-width="4" stroke-linecap="round" stroke-linejoin="round" stroke-miterlimit="10" cx="65" cy="85" r="3"/><path fill="none" stroke="#000" stroke-width="4" stroke-linecap="round" stroke-linejoin="round" stroke-miterlimit="10" d="M34 85h28m-29.172-2.828L43 67m20.172 15.172L53 67m-5 1v17m-6-16v15m12-15v16m6-7v7m-24-7v7m5.882-41.722c1.069 1.177 1.037 5.333 1.037 5.333s.143 5.395-1.037 6.176c-3.712 2.457-17.58 3.178-20.714 0-3.134-3.178.199-8.722 4.013-11.509 4.115-3.008 13.699-3.306 16.701 0zm12.086 0c-1.069 1.177-1.037 5.333-1.037 5.333s-.143 5.395 1.037 6.176c3.712 2.457 17.58 3.178 20.714 0 3.134-3.178-.199-8.722-4.013-11.509-4.115-3.008-13.698-3.306-16.701 0z"/><path fill="none" stroke="#000" stroke-width="4" stroke-linecap="round" stroke-miterlimit="10" d="M67.121 82.879l7.712-13.293M26.91 19.433c4.31-4.664 10.376-7.836 17.09-8.804M21.873 27.227c.399-.943.85-1.858 1.349-2.74m5.657 58.392l-7.712-13.293m54.931 13.371C83 82 91.903 78.837 93.225 78.149m-73 4.808C13.323 82 4.098 78.762 2.776 78.074M83 45s-8.333-18.167-31-10M13 45s8.333-18.167 31-10"/><path fill="none" stroke="#000" stroke-width="4" stroke-linecap="round" stroke-miterlimit="10" d="M44 4.231C26.568 6.234 13 21.037 13 39v6L3.364 76.343c-1.781 4.782-2.333 9.574 1.01 11.314C14.157 92.749 36.893 94 47.995 94s33.836-1.251 43.619-6.343c3.343-1.74 2.782-6.532 1.001-11.314L82.959 45 83 40.031 82.959 39C82.959 21.037 69.427 6.234 52 4.231"/></symbol><symbol id="falcon" viewBox="0 0 96 96"><path fill="none" stroke="#000" stroke-width="4" stroke-linecap="round" stroke-linejoin="round" stroke-miterlimit="10" d="M33.163 45.839L15.75 28.427m25.127 10.984l-17.89-17.89"/><circle transform="rotate(-45.001 22.558 73.42)" fill="none" stroke="#000" stroke-width="4" stroke-linecap="round" stroke-linejoin="round" stroke-miterlimit="10" cx="22.559" cy="73.419" r="1"/><circle transform="rotate(-45.001 29.63 66.349)" fill="none" stroke="#000" stroke-width="4" stroke-linecap="round" stroke-linejoin="round" stroke-miterlimit="10" cx="29.63" cy="66.348" r="1"/><circle fill="none" stroke="#000" stroke-width="4" stroke-linecap="round" stroke-linejoin="round" stroke-miterlimit="10" cx="15.584" cy="61.752" r="1"/><circle fill="none" stroke="#000" stroke-width="4" stroke-linecap="round" stroke-linejoin="round" stroke-miterlimit="10" cx="24.584" cy="57.509" r="1"/><circle fill="none" stroke="#000" stroke-width="4" stroke-linecap="round" stroke-linejoin="round" stroke-miterlimit="10" cx="34.226" cy="80.394" r="1"/><circle fill="none" stroke="#000" stroke-width="4" stroke-linecap="round" stroke-linejoin="round" stroke-miterlimit="10" cx="38.469" cy="71.394" r="1"/><path fill="none" stroke="#000" stroke-width="4" stroke-linecap="round" stroke-linejoin="round" stroke-miterlimit="10" d="M49.819 40.502L84.077 6.244l-4.243-4.243-47.148 14.494m41.492-.352l5.656 5.657m-6.515 6.515c5.669 7.034 8.288 15.854 8.05 24.413"/><path fill="none" stroke="#000" stroke-width="4" stroke-linecap="round" stroke-linejoin="round" stroke-miterlimit="10" d="M55.116 46.472l34.618-34.571 4.243 4.242-11.061 35.104"/><path fill="none" stroke="#000" stroke-width="4" stroke-linecap="round" stroke-linejoin="round" stroke-miterlimit="10" d="M58.994 57.528l25.79 5.991 7.778-7.778c1.945-1.945 1.945-5.127 0-7.071h0c-1.944-1.944-5.126-1.944-7.071 0l-4.152 4.088-26.222-6.286m19.425 26.604L55.566 54.205m12.096 26.134L49.284 61.777"/><circle transform="rotate(-45.001 44 51)" fill="none" stroke="#000" stroke-width="4" stroke-linecap="round" stroke-miterlimit="10" cx="44" cy="51" r="12"/><path fill="none" stroke="#000" stroke-width="4" stroke-linecap="round" stroke-linejoin="round" stroke-miterlimit="10" d="M7.954 46l25.209-.161m16.798 42.254l-.711-26.316m30.793.641a36.836 36.836 0 01-9.197 15.244 36.84 36.84 0 01-20.681 10.431l-5.961 5.906h0c-10 0-21.514-4.149-29.813-12.448-8.28-8.28-12.43-19.128-12.448-29.98h0L7.954 46c1.155-7.507 4.784-14.882 10.566-20.664 13.459-13.459 34.708-14.382 49.235-2.767"/></symbol></svg>