<svg xmlns="http://www.w3.org/2000/svg" width="96" height="96"><g id="C3PO" fill="none" stroke="#f44336" stroke-width="4" stroke-linecap="round" stroke-miterlimit="10"><path stroke-linejoin="round" d="M14.124 65.475L7 63 5 45l6.001-2.209M81.95 65.235L88.954 63l2-18L85 42.875m-16.365 46.46L76.954 87H77l-.024-10.46M27.887 89.732L19.01 87H19l.006-10.491"/><circle cx="64" cy="52" r="1"/><circle cx="64" cy="52" r="12"/><path d="M64 59v5m0-24v5m6-3v20.346M58 41.568v20.778"/><circle cx="32" cy="52" r="1"/><circle cx="32" cy="52" r="12"/><path d="M32 59v5m0-24v5m6-3.394v20.74M26 41.605v20.741m18 6.725L47.917 66 52 69.071"/><path stroke-linejoin="round" d="M57 78v6H39v-6z"/><path stroke-linejoin="round" d="M57 81h17l-.067-.053C80.44 72.712 85 60.309 85 43c0-14.011-11.938-29.07-34-29.07h-6c-22.062 0-34 15.059-34 29.07 0 17.309 4.56 29.712 11.067 37.947L22 81h17m32.2 0l-3.131 10.176A4 4 0 0164.246 94H32.154a3.999 3.999 0 01-3.823-2.824L25.2 81"/><path stroke-linejoin="round" d="M11 41C11 19.461 29.222 2 48 2s37 17.461 37 39"/><circle stroke-linejoin="round" cx="48" cy="8" r="1"/></g></svg>